<svg
  width="841.9"
  height="595.3"
  viewBox="0 0 841.9 595.3"
  xmlns="http://www.w3.org/2000/svg"
  fill="#61DAFB"
>
  <g>
    <circle cx="420.9" cy="296.5" r="45.7" />
    <path d="M520.5 78.1c-19.8-10.9-44-7.7-62 6.9-22.5-29.5-62.7-40.7-95.7-27.3-43.5 17.8-52 64-50.6 102.2 12.6 35.3 40.4 58.3 74.8 74.7-25.5 15.7-52.6 31.3-68.2 58.2-16 30.5-15.3 72.5-1.1 102.6 17 36 48.4 53.8 82.7 59.3-21 9-43.8 11.9-66 6.7-43.7-12.6-74.7-48.9-85-91.9-14.3-58.7 21.1-121 68.2-159.6 22.3-16.9 49.2-28.2 77.4-33.1 13.7-2.6 27.8-3.2 40.5-1z" />
  </g>
</svg>
